HIERARCHY
ROOT reference
{
  OFFSET 0 0 0
  CHANNELS 6 Xposition Yposition Zposition Zrotation Xrotation Yrotation
  JOINT Hips
  {
    OFFSET 44.6805 85.9651 -20.1189
    CHANNELS 3 Zrotation Xrotation Yrotation
    JOINT RightUpLeg
    {
      OFFSET -9.20028 -1.61905 0.0313892
      CHANNELS 3 Zrotation Xrotation Yrotation
      JOINT RightLeg
      {
        OFFSET 0.0920446 -41.8676 0.113709
        CHANNELS 3 Zrotation Xrotation Yrotation
        JOINT RightFoot
        {
          OFFSET -0.78009 -42.2818 -0.985537
          CHANNELS 3 Zrotation Xrotation Yrotation
          End Site
          {
            OFFSET 0 -7.69 17.5
          }
        }
      }
    }
    JOINT LeftUpLeg
    {
      OFFSET 9.33559 -1.63058 -0.0435578
      CHANNELS 3 Zrotation Xrotation Yrotation
      JOINT LeftLeg
      {
        OFFSET 0.124601 -41.8685 -0.0153308
        CHANNELS 3 Zrotation Xrotation Yrotation
        JOINT LeftFoot
        {
          OFFSET -0.885525 -42.178 -0.480441
          CHANNELS 3 Zrotation Xrotation Yrotation
          End Site
          {
            OFFSET 0 -7.69 17.5
          }
        }
      }
    }
    JOINT Spine
    {
      OFFSET -0.030151 14.2977 0.0632059
      CHANNELS 3 Zrotation Xrotation Yrotation
      JOINT Spine1
      {
        OFFSET -0.0449239 9.71163 -4.69081e-05
        CHANNELS 3 Zrotation Xrotation Yrotation
        JOINT Spine2
        {
          OFFSET 0.0275009 10.1133 -0.0283136
          CHANNELS 3 Zrotation Xrotation Yrotation
          JOINT Spine3
          {
            OFFSET 0.0288761 9.7229 -0.000806902
            CHANNELS 3 Zrotation Xrotation Yrotation
            JOINT Neck
            {
              OFFSET -0.0518603 10.2949 0.241895
              CHANNELS 3 Zrotation Xrotation Yrotation
              JOINT Head
              {
                OFFSET -0.275401 9.55953 0.0709142
                CHANNELS 3 Zrotation Xrotation Yrotation
                End Site
                {
                  OFFSET 0 15.95 0
                }
              }
            }
            JOINT RightShoulder
            {
              OFFSET -3.17286 6.95881 0.00543218
              CHANNELS 3 Zrotation Xrotation Yrotation
              JOINT RightArm
              {
                OFFSET -12.7612 0.039846 0.0411956
                CHANNELS 3 Zrotation Xrotation Yrotation
                JOINT RightForeArm
                {
                  OFFSET -26.5517 0.0729849 0.08211
                  CHANNELS 3 Zrotation Xrotation Yrotation
                  JOINT RightHand
                  {
                    OFFSET -26.0042 -0.0197864 0.0403594
                    CHANNELS 3 Zrotation Xrotation Yrotation
                    JOINT RightHandThumb1
                    {
                      OFFSET -2.48905 0.190105 3.12053
                      CHANNELS 3 Zrotation Xrotation Yrotation
                      JOINT RightHandThumb2
                      {
                        OFFSET -3.68274 0 0
                        CHANNELS 3 Zrotation Xrotation Yrotation
                        JOINT RightHandThumb3
                        {
                          OFFSET -2.55832 0 0
                          CHANNELS 3 Zrotation Xrotation Yrotation
                          End Site
                          {
                            OFFSET -2.194 0 0
                          }
                        }
                      }
                    }
                    JOINT RightInHandIndex
                    {
                      OFFSET -3.22368 0.508421 1.97842
                      CHANNELS 3 Zrotation Xrotation Yrotation
                      JOINT RightHandIndex1
                      {
                        OFFSET -5.21684 -0.091368 0.999158
                        CHANNELS 3 Zrotation Xrotation Yrotation
                        JOINT RightHandIndex2
                        {
                          OFFSET -3.61937 0 0
                          CHANNELS 3 Zrotation Xrotation Yrotation
                          JOINT RightHandIndex3
                          {
                            OFFSET -2.0521 0 0
                            CHANNELS 3 Zrotation Xrotation Yrotation
                            End Site
                            {
                              OFFSET -1.805 0 0
                            }
                          }
                        }
                      }
                    }
                    JOINT RightInHandMiddle
                    {
                      OFFSET -3.38211 0.517263 0.756737
                      CHANNELS 3 Zrotation Xrotation Yrotation
                      JOINT RightHandMiddle1
                      {
                        OFFSET -5.17411 -0.084 0.313895
                        CHANNELS 3 Zrotation Xrotation Yrotation
                        JOINT RightHandMiddle2
                        {
                          OFFSET -3.94947 0 0
                          CHANNELS 3 Zrotation Xrotation Yrotation
                          JOINT RightHandMiddle3
                          {
                            OFFSET -2.47579 0 0
                            CHANNELS 3 Zrotation Xrotation Yrotation
                            End Site
                            {
                              OFFSET -1.975 0 0
                            }
                          }
                        }
                      }
                    }
                    JOINT RightInHandRing
                    {
                      OFFSET -3.36516 0.537895 -0.128947
                      CHANNELS 3 Zrotation Xrotation Yrotation
                      JOINT RightHandRing1
                      {
                        OFFSET -4.63474 -0.022105 -0.478947
                        CHANNELS 3 Zrotation Xrotation Yrotation
                        JOINT RightHandRing2
                        {
                          OFFSET -3.44238 0 0
                          CHANNELS 3 Zrotation Xrotation Yrotation
                          JOINT RightHandRing3
                          {
                            OFFSET -2.3881 0 0
                            CHANNELS 3 Zrotation Xrotation Yrotation
                            End Site
                            {
                              OFFSET -1.857 0 0
                            }
                          }
                        }
                      }
                    }
                    JOINT RightInHandPinky
                    {
                      OFFSET -3.16105 0.469368 -1.20179
                      CHANNELS 3 Zrotation Xrotation Yrotation
                      JOINT RightHandPinky1
                      {
                        OFFSET -4.14105 -0.022105 -1.09053
                        CHANNELS 3 Zrotation Xrotation Yrotation
                        JOINT RightHandPinky2
                        {
                          OFFSET -2.75653 0 0
                          CHANNELS 3 Zrotation Xrotation Yrotation
                          JOINT RightHandPinky3
                          {
                            OFFSET -1.74189 0 0
                            CHANNELS 3 Zrotation Xrotation Yrotation
                            End Site
                            {
                              OFFSET -1.645 0 0
                            }
                          }
                        }
                      }
                    }
                  }
                }
              }
            }
            JOINT LeftShoulder
            {
              OFFSET 3.22572 6.89245 -0.0537601
              CHANNELS 3 Zrotation Xrotation Yrotation
              JOINT LeftArm
              {
                OFFSET 12.8183 -0.0506887 -0.111983
                CHANNELS 3 Zrotation Xrotation Yrotation
                JOINT LeftForeArm
                {
                  OFFSET 26.4786 -0.0502099 0.0159937
                  CHANNELS 3 Zrotation Xrotation Yrotation
                  JOINT LeftHand
                  {
                    OFFSET 25.8931 -0.161185 0.0946899
                    CHANNELS 3 Zrotation Xrotation Yrotation
                    JOINT LeftHandThumb1
                    {
                      OFFSET 2.48905 0.190105 3.12053
                      CHANNELS 3 Zrotation Xrotation Yrotation
                      JOINT LeftHandThumb2
                      {
                        OFFSET 3.68274 0 0
                        CHANNELS 3 Zrotation Xrotation Yrotation
                        JOINT LeftHandThumb3
                        {
                          OFFSET 2.55832 0 0
                          CHANNELS 3 Zrotation Xrotation Yrotation
                          End Site
                          {
                            OFFSET 2.194 0 0
                          }
                        }
                      }
                    }
                    JOINT LeftInHandIndex
                    {
                      OFFSET 3.22368 0.508421 1.97842
                      CHANNELS 3 Zrotation Xrotation Yrotation
                      JOINT LeftHandIndex1
                      {
                        OFFSET 5.21684 -0.091368 0.999158
                        CHANNELS 3 Zrotation Xrotation Yrotation
                        JOINT LeftHandIndex2
                        {
                          OFFSET 3.61937 0 0
                          CHANNELS 3 Zrotation Xrotation Yrotation
                          JOINT LeftHandIndex3
                          {
                            OFFSET 2.0521 0 0
                            CHANNELS 3 Zrotation Xrotation Yrotation
                            End Site
                            {
                              OFFSET 1.805 0 0
                            }
                          }
                        }
                      }
                    }
                    JOINT LeftInHandMiddle
                    {
                      OFFSET 3.38211 0.517263 0.756737
                      CHANNELS 3 Zrotation Xrotation Yrotation
                      JOINT LeftHandMiddle1
                      {
                        OFFSET 5.17411 -0.084 0.313895
                        CHANNELS 3 Zrotation Xrotation Yrotation
                        JOINT LeftHandMiddle2
                        {
                          OFFSET 3.94947 0 0
                          CHANNELS 3 Zrotation Xrotation Yrotation
                          JOINT LeftHandMiddle3
                          {
                            OFFSET 2.47579 0 0
                            CHANNELS 3 Zrotation Xrotation Yrotation
                            End Site
                            {
                              OFFSET 1.975 0 0
                            }
                          }
                        }
                      }
                    }
                    JOINT LeftInHandRing
                    {
                      OFFSET 3.36516 0.537895 -0.128947
                      CHANNELS 3 Zrotation Xrotation Yrotation
                      JOINT LeftHandRing1
                      {
                        OFFSET 4.63474 -0.022105 -0.478947
                        CHANNELS 3 Zrotation Xrotation Yrotation
                        JOINT LeftHandRing2
                        {
                          OFFSET 3.44238 0 0
                          CHANNELS 3 Zrotation Xrotation Yrotation
                          JOINT LeftHandRing3
                          {
                            OFFSET 2.3881 0 0
                            CHANNELS 3 Zrotation Xrotation Yrotation
                            End Site
                            {
                              OFFSET 1.857 0 0
                            }
                          }
                        }
                      }
                    }
                    JOINT LeftInHandPinky
                    {
                      OFFSET 3.16105 0.469368 -1.20179
                      CHANNELS 3 Zrotation Xrotation Yrotation
                      JOINT LeftHandPinky1
                      {
                        OFFSET 4.14105 -0.022105 -1.09053
                        CHANNELS 3 Zrotation Xrotation Yrotation
                        JOINT LeftHandPinky2
                        {
                          OFFSET 2.75653 0 0
                          CHANNELS 3 Zrotation Xrotation Yrotation
                          JOINT LeftHandPinky3
                          {
                            OFFSET 1.74189 0 0
                            CHANNELS 3 Zrotation Xrotation Yrotation
                            End Site
                            {
                              OFFSET 1.645 0 0
                            }
                          }
                        }
                      }
                    }
                  }
                }
              }
            }
          }
        }
      }
    }
  }
}
MOTION
Frames: 2
Frame Time: 0.00833333
3.000000000000000000e+02 0.000000000000000000e+00 0.000000000000000000e+00 0.000000000000000000e+00 0.000000000000000000e+00 0.000000000000000000e+00 -3.452375405744556591e-01 1.082984860084609119e-02 1.095167461593337110e+00 -8.333145846871151674e-01 -5.276006813513083316e-01 -3.238080756264231752e+00 9.098789090802318347e-01 -3.534003476798939225e-01 -1.013814246404243224e+00 -7.961704770816597776e-01 1.525816803754274531e+00 1.863048409218022172e+00 -5.226120962997857777e-01 -2.565208679512955697e-03 -2.942072601747452776e+00 -6.743095826851709385e-01 1.792247724497663952e-01 2.656990232163048554e-02 -2.334925326942867141e-01 -2.736400370735633247e-01 1.240770818639443052e+00 1.958662919113820511e-01 3.882197410113923386e-01 -9.416491754086153687e-02 5.149055875196105470e-02 -1.094345889379013011e-02 -4.292188954569069875e-02 8.489120172764898220e-02 1.508953784965017253e-01 -4.680742146372207646e-02 -2.811978200817673301e-02 -5.784348459336787762e-01 -2.813892185259115122e-02 -2.815886829543287284e+00 1.002547610765848862e+00 -3.013479548542135511e+00 -1.025291986059034377e+00 -5.178662445393835689e-01 1.025004527555625489e-01 -4.260502462566300580e-02 3.400866346436559051e-01 -1.415719095205588252e+00 4.041072537172249110e-03 -1.266312840832267916e+00 -6.682604852421242247e-01 -3.052582494474997432e+01 -8.602100348637548022e-01 2.526671559841169881e+02 1.956316130313048851e-01 -1.750138576819846969e+00 -2.688438097908886437e+00 0.000000000000000000e+00 0.000000000000000000e+00 0.000000000000000000e+00 5.497673715886998530e-15 1.881910707944908199e-15 0.000000000000000000e+00 8.907185476838697027e-15 -2.122227597158421860e-15 0.000000000000000000e+00 9.545311298455651199e-15 -1.591433813906850407e-15 3.550204292172165973e-15 0.000000000000000000e+00 0.000000000000000000e+00 0.000000000000000000e+00 0.000000000000000000e+00 -1.431047411544956083e-14 -3.884419185464797109e-18 0.000000000000000000e+00 -1.433671081372642041e-14 -2.714412014065023415e-14 9.545311298455651199e-15 -1.591433813906850407e-15 3.550204292172165973e-15 0.000000000000000000e+00 2.879388436742730134e-15 -1.559199922490023619e-14 0.000000000000000000e+00 -7.504586697804499654e-15 2.200047142996401814e-15 0.000000000000000000e+00 -2.127303755302253742e-14 -3.670843728916753507e-14 9.545311298455651199e-15 -1.591433813906850407e-15 3.550204292172165973e-15 0.000000000000000000e+00 0.000000000000000000e+00 0.000000000000000000e+00 0.000000000000000000e+00 -1.922585713106316057e-16 -1.498774542405314196e-14 0.000000000000000000e+00 -1.190507270539126505e-14 -4.837023537343191738e-14 9.545311298455651199e-15 -1.591433813906850407e-15 3.550204292172165973e-15 0.000000000000000000e+00 0.000000000000000000e+00 0.000000000000000000e+00 0.000000000000000000e+00 8.144962831949484943e-16 -1.863486911836762825e-14 0.000000000000000000e+00 -5.728513264249879144e-15 -1.978182149657881022e-14 -9.746459156007870606e-01 9.826657988539400090e-01 -2.783859576374740019e+00 -3.916527817428371028e-03 -2.899782774917030737e-01 7.823335791053812605e-01 -4.605692978836909979e-01 1.715840403511873502e-01 -2.706782121553627629e+00 5.256477274685237511e+00 4.382041339208505804e+00 1.217442531286721419e+01 0.000000000000000000e+00 0.000000000000000000e+00 0.000000000000000000e+00 6.903232336750432190e-15 -1.080830708332939104e-14 0.000000000000000000e+00 1.886609580948743309e-14 -1.348082811605037277e-14 0.000000000000000000e+00 -6.883736956084751456e-15 -4.374594306013280757e-16 8.156835306576605856e-15 0.000000000000000000e+00 0.000000000000000000e+00 0.000000000000000000e+00 0.000000000000000000e+00 1.884197310612923132e-14 -6.926012118404408596e-14 0.000000000000000000e+00 -4.861806365253845060e-15 -1.688147942486401383e-14 -6.883736956084751456e-15 -4.374594306013280757e-16 8.156835306576605856e-15 0.000000000000000000e+00 1.110173091759823929e-15 1.561483607249815313e-14 0.000000000000000000e+00 2.288260601494821722e-14 -1.102449894254823372e-13 0.000000000000000000e+00 -5.944660827720759661e-15 -2.504624537626012594e-14 -6.883736956084751456e-15 -4.374594306013280757e-16 8.156835306576605856e-15 0.000000000000000000e+00 0.000000000000000000e+00 0.000000000000000000e+00 0.000000000000000000e+00 6.859446363672875051e-14 -3.666295446394675177e-13 0.000000000000000000e+00 9.252696962116559965e-15 -1.825588255002700180e-14 -6.883736956084751456e-15 -4.374594306013280757e-16 8.156835306576605856e-15 0.000000000000000000e+00 0.000000000000000000e+00 0.000000000000000000e+00 0.000000000000000000e+00 8.768230344318240796e-16 -1.455045136880294554e-14 0.000000000000000000e+00 -1.089565636383484603e-15 -9.426659839303226825e-15
3.000000000000000000e+02 0.000000000000000000e+00 0.000000000000000000e+00 0.000000000000000000e+00 0.000000000000000000e+00 0.000000000000000000e+00 -3.841216386952258643e-01 -2.846374607267685222e-02 1.113047587319913267e+00 -8.070617276858966793e-01 -5.913558376878711442e-01 -3.229609249670915450e+00 8.973991040215211212e-01 -3.220454070701008198e-01 -1.035697676743536633e+00 -7.823454531416387248e-01 1.536750275861994641e+00 1.873200549338600140e+00 -5.113888723958700533e-01 -7.044874756255087647e-04 -2.997024474700490160e+00 -7.833443264419771568e-01 1.311471534373128689e-01 1.778864653710634514e-01 -6.957039862581435030e-02 -3.676754853587521077e-01 1.331576337507599295e+00 1.463126987467607276e-01 3.904809708195011719e-01 -2.185460934632503516e-01 3.708235474010890265e-02 -8.213917140950325463e-03 -7.689994932068190681e-02 6.242013508818301110e-02 1.383564829419583753e-01 -1.083046012053236196e-01 -2.665115133953411403e-02 -6.051046556116752573e-01 -3.579232392947960528e-02 -2.826402057350706265e+00 8.481859259706794330e-01 -3.014144640779425011e+00 -1.038862824347626779e+00 -5.696269905449611315e-01 1.521674108542031556e-01 5.275822295766433717e-02 3.333969606446174905e-01 -9.953381163133414589e-01 -3.143052632297727023e-02 -1.420078363697371060e+00 -8.093959679716993261e-01 -2.440264851885234876e+01 -1.002723749616428739e+00 2.389570442365011047e+02 2.044352207866157733e-01 -1.708299015617331884e+00 -2.845070649309472177e+00 0.000000000000000000e+00 0.000000000000000000e+00 0.000000000000000000e+00 8.113839551533571834e-15 1.597867500986627669e-15 0.000000000000000000e+00 1.019175450718712709e-14 -2.643913740737656456e-15 0.000000000000000000e+00 1.063412492566709788e-14 -1.532484669988571725e-15 3.483422589923459230e-15 0.000000000000000000e+00 0.000000000000000000e+00 0.000000000000000000e+00 0.000000000000000000e+00 -1.505769639754183603e-14 -3.283826664935739553e-15 0.000000000000000000e+00 -1.420861986037333568e-14 -2.604853162175528116e-14 1.063412492566709788e-14 -1.532484669988571725e-15 3.483422589923459230e-15 0.000000000000000000e+00 2.187329152480961376e-15 -1.599662003906547513e-14 0.000000000000000000e+00 -8.353458163797307588e-15 2.373560057860390954e-15 0.000000000000000000e+00 -2.012824705758912607e-14 -3.150902919714351031e-14 1.063412492566709788e-14 -1.532484669988571725e-15 3.483422589923459230e-15 0.000000000000000000e+00 0.000000000000000000e+00 0.000000000000000000e+00 0.000000000000000000e+00 -7.722805925610172965e-16 -1.477900929507113991e-14 0.000000000000000000e+00 -1.096738807363296604e-14 -4.429816331714017151e-14 1.063412492566709788e-14 -1.532484669988571725e-15 3.483422589923459230e-15 0.000000000000000000e+00 0.000000000000000000e+00 0.000000000000000000e+00 0.000000000000000000e+00 5.148327926248114188e-16 -2.065316024189574130e-14 0.000000000000000000e+00 -4.743516921697132453e-15 -1.754631436979803676e-14 -9.430231689879829959e-01 9.575597542053767564e-01 -2.783550462380285140e+00 3.729223699270840103e-02 -3.496072918604101742e-01 7.987955223690345052e-01 -4.119882527637290792e-01 5.386719384080632805e-02 -2.955787043705315309e+00 4.388284523041254381e+00 4.905560231287918960e+00 9.992686190835659232e+00 0.000000000000000000e+00 0.000000000000000000e+00 0.000000000000000000e+00 7.422931487452691451e-15 -9.974906667177093610e-15 0.000000000000000000e+00 2.004201213529765029e-14 -1.320568723703267596e-14 0.000000000000000000e+00 -7.806897066013024847e-15 2.262189864417588933e-15 7.780944722600987719e-15 0.000000000000000000e+00 0.000000000000000000e+00 0.000000000000000000e+00 0.000000000000000000e+00 2.098457955332114856e-14 -7.460714342278629167e-14 0.000000000000000000e+00 -5.432746046110174698e-15 -1.488751652397052549e-14 -7.806897066013024847e-15 2.262189864417588933e-15 7.780944722600987719e-15 0.000000000000000000e+00 2.763660487014831943e-15 1.372797498960109078e-14 0.000000000000000000e+00 2.470830728822797529e-14 -1.175969119636607746e-13 0.000000000000000000e+00 -6.868560282073821128e-15 -2.356462380424440300e-14 -7.806897066013024847e-15 2.262189864417588933e-15 7.780944722600987719e-15 0.000000000000000000e+00 0.000000000000000000e+00 0.000000000000000000e+00 0.000000000000000000e+00 5.758724422612328170e-14 -3.251948591591615765e-13 0.000000000000000000e+00 9.019355199185961779e-15 -1.938944694783929746e-14 -7.806897066013024847e-15 2.262189864417588933e-15 7.780944722600987719e-15 0.000000000000000000e+00 0.000000000000000000e+00 0.000000000000000000e+00 0.000000000000000000e+00 1.385325221044543389e-16 -1.127270110887029610e-14 0.000000000000000000e+00 -2.373790982323787884e-15 -8.381054969763107311e-15
